<svg data-v-423bf9ae="" xmlns="http://www.w3.org/2000/svg" viewBox="0 0 405 90" class="iconLeft"><!----><!----><!----><g data-v-423bf9ae="" id="1922cefe-1097-46e3-9083-6b6d3629e228" fill="#08374E" transform="matrix(6.1224488604322,0,0,6.1224488604322,105.71428667647493,0.0000016689300537109375)"><path d="M0.70 10.23L0.70 10.23L0.70 4.46Q0.70 3.47 1.22 2.96Q1.74 2.45 2.73 2.45L2.73 2.45L4.30 2.45Q5.28 2.45 5.80 2.96Q6.32 3.48 6.32 4.46L6.32 4.46L6.32 5.97Q6.32 6.08 6.25 6.14Q6.19 6.20 6.09 6.20L6.09 6.20L4.77 6.20Q4.55 6.20 4.55 5.97L4.55 5.97L4.55 4.83Q4.55 4.27 3.99 4.27L3.99 4.27L3.10 4.27Q2.54 4.27 2.54 4.83L2.54 4.83L2.54 9.91Q2.54 10.47 3.10 10.47L3.10 10.47L3.99 10.47Q4.55 10.47 4.55 9.91L4.55 9.91L4.55 8.72Q4.55 8.50 4.77 8.50L4.77 8.50L6.09 8.50Q6.19 8.50 6.25 8.56Q6.32 8.62 6.32 8.72L6.32 8.72L6.32 10.23Q6.32 11.22 5.80 11.73Q5.28 12.25 4.30 12.25L4.30 12.25L2.73 12.25Q1.74 12.25 1.22 11.74Q0.70 11.22 0.70 10.23ZM7.71 10.23L7.71 10.23L7.71 4.46Q7.71 3.47 8.22 2.96Q8.74 2.45 9.73 2.45L9.73 2.45L11.30 2.45Q12.29 2.45 12.80 2.96Q13.32 3.47 13.32 4.46L13.32 4.46L13.32 10.23Q13.32 11.22 12.80 11.74Q12.29 12.25 11.30 12.25L11.30 12.25L9.73 12.25Q8.74 12.25 8.22 11.74Q7.71 11.22 7.71 10.23ZM9.54 4.82L9.54 9.88Q9.54 10.45 10.10 10.45L10.10 10.45L10.99 10.45Q11.55 10.45 11.55 9.88L11.55 9.88L11.55 4.82Q11.55 4.26 10.99 4.26L10.99 4.26L10.10 4.26Q9.54 4.26 9.54 4.82L9.54 4.82ZM14.71 12.02L14.71 12.02L14.71 2.67Q14.71 2.45 14.94 2.45L14.94 2.45L18.30 2.45Q19.29 2.45 19.80 2.97Q20.32 3.49 20.32 4.48L20.32 4.48L20.32 10.23Q20.32 11.22 19.80 11.74Q19.29 12.25 18.30 12.25L18.30 12.25L14.94 12.25Q14.71 12.25 14.71 12.02ZM16.62 4.30L16.62 10.40L17.90 10.40Q18.46 10.40 18.46 9.84L18.46 9.84L18.46 4.87Q18.46 4.30 17.90 4.30L17.90 4.30L16.62 4.30ZM21.71 12.02L21.71 12.02L21.71 2.67Q21.71 2.57 21.77 2.51Q21.83 2.45 21.92 2.45L21.92 2.45L27.08 2.45Q27.30 2.45 27.30 2.67L27.30 2.67L27.30 4.07Q27.30 4.31 27.08 4.31L27.08 4.31L23.62 4.31L23.62 6.47L26.25 6.47Q26.48 6.47 26.48 6.71L26.48 6.71L26.48 8.09Q26.48 8.33 26.25 8.33L26.25 8.33L23.62 8.33L23.62 10.40L27.08 10.40Q27.21 10.40 27.25 10.45Q27.30 10.50 27.30 10.62L27.30 10.62L27.30 12.02Q27.30 12.25 27.08 12.25L27.08 12.25L21.92 12.25Q21.83 12.25 21.77 12.19Q21.71 12.13 21.71 12.02ZM28.27 10.23L28.27 10.23L28.27 9.32Q28.27 9.10 28.50 9.10L28.50 9.10L29.91 9.10Q30.14 9.10 30.14 9.32L30.14 9.32L30.14 9.91Q30.14 10.47 30.70 10.47L30.70 10.47L31.45 10.47Q32.01 10.47 32.01 9.91L32.01 9.91L32.01 8.50L28.66 7.40Q28.27 7.28 28.27 6.89L28.27 6.89L28.27 4.46Q28.27 3.48 28.79 2.96Q29.31 2.45 30.29 2.45L30.29 2.45L31.86 2.45Q32.85 2.45 33.37 2.96Q33.88 3.47 33.88 4.46L33.88 4.46L33.88 5.39Q33.88 5.61 33.65 5.61L33.65 5.61L32.24 5.61Q32.14 5.61 32.07 5.55Q32.01 5.49 32.01 5.39L32.01 5.39L32.01 4.80Q32.01 4.25 31.45 4.25L31.45 4.25L30.69 4.25Q30.42 4.25 30.27 4.39Q30.13 4.53 30.13 4.80L30.13 4.80L30.13 6.00L33.51 7.08Q33.88 7.21 33.88 7.60L33.88 7.60L33.88 10.23Q33.88 11.22 33.37 11.74Q32.85 12.25 31.86 12.25L31.86 12.25L30.29 12.25Q29.31 12.25 28.79 11.73Q28.27 11.22 28.27 10.23ZM35.27 12.02L35.27 12.02L35.27 2.67Q35.27 2.57 35.33 2.51Q35.39 2.45 35.49 2.45L35.49 2.45L40.64 2.45Q40.87 2.45 40.87 2.67L40.87 2.67L40.87 4.07Q40.87 4.31 40.64 4.31L40.64 4.31L37.18 4.31L37.18 6.47L39.81 6.47Q40.04 6.47 40.04 6.71L40.04 6.71L40.04 8.09Q40.04 8.33 39.81 8.33L39.81 8.33L37.18 8.33L37.18 10.40L40.64 10.40Q40.77 10.40 40.82 10.45Q40.87 10.50 40.87 10.62L40.87 10.62L40.87 12.02Q40.87 12.25 40.64 12.25L40.64 12.25L35.49 12.25Q35.39 12.25 35.33 12.19Q35.27 12.13 35.27 12.02ZM41.71 12.01L41.71 12.01L44.03 2.65Q44.07 2.45 44.27 2.45L44.27 2.45L46.22 2.45Q46.42 2.45 46.46 2.65L46.46 2.65L48.78 12.01Q48.79 12.06 48.79 12.09L48.79 12.09Q48.79 12.25 48.58 12.25L48.58 12.25L47.22 12.25Q47.04 12.25 47.00 12.05L47.00 12.05L46.55 10.29L43.92 10.29L43.49 12.05Q43.45 12.25 43.26 12.25L43.26 12.25L41.89 12.25Q41.69 12.25 41.69 12.10L41.69 12.10Q41.69 12.06 41.71 12.01ZM45.24 4.86L44.36 8.67L46.12 8.67L45.24 4.86Z"></path></g><defs data-v-423bf9ae=""><linearGradient data-v-423bf9ae="" gradientTransform="rotate(25)" id="f8dced71-1eb7-443d-ba62-da5acb703a34" x1="0%" y1="0%" x2="100%" y2="0%"><stop data-v-423bf9ae="" offset="0%" style="stop-color: rgb(13, 124, 233); stop-opacity: 1;"></stop><stop data-v-423bf9ae="" offset="100%" style="stop-color: rgb(21, 207, 241); stop-opacity: 1;"></stop></linearGradient></defs><g data-v-423bf9ae="" id="d1e12b49-4fd3-4dde-91b4-5ca7290164f6" transform="matrix(2.8125,0,0,2.8125,0,0)" stroke="none" fill="url(#f8dced71-1eb7-443d-ba62-da5acb703a34)"><path d="M4.029 14.362L14.362 4.028l.707.707L4.736 15.07zM17.135 27.47L27.47 17.135l.707.707-10.333 10.333zM4.029 17.841l.707-.707 10.333 10.334-.707.707zM17.135 4.735l.708-.707L28.176 14.36l-.707.707z"></path><g><path d="M16 1.414l1.683 1.683L16 4.779l-1.683-1.683L16 1.414M16 0l-3.097 3.097L16 6.194l3.097-3.097L16 0zM16 27.221l1.683 1.683L16 30.586l-1.683-1.683L16 27.221m0-1.415l-3.097 3.097L16 32l3.097-3.097L16 25.806zM3.097 14.317L4.779 16l-1.683 1.683L1.414 16l1.683-1.683m0-1.414L0 16l3.097 3.097L6.194 16l-3.097-3.097zM28.903 14.317L30.586 16l-1.683 1.683L27.221 16l1.682-1.683m0-1.414L25.806 16l3.097 3.097L32 16l-3.097-3.097z"></path></g></g><!----></svg>